<svg
   width="64"
   height="64"
   viewBox="0 0 64 64"
   fill="none"
   version="1.1"
   id="svg239"
   xmlns:sodipodi="http://sodipodi.sourceforge.net/DTD/sodipodi-0.dtd"
   xmlns:xlink="http://www.w3.org/1999/xlink"
   xmlns="http://www.w3.org/2000/svg"
   xmlns:svg="http://www.w3.org/2000/svg">
  <path
     fill-rule="evenodd"
     clip-rule="evenodd"
     d="m 20.516755,4.4812845 c -0.8049,0.530751 -0.9419,1.123121 -0.5855,2.533121 1.1239,4.4464995 2.7866,6.7676295 5.6682,7.9122995 1.5672,0.6223 2.2808,0.7188 5.9503,0.8043 l 3.4325,0.0799 -1.4638,1.1723 c -0.805,0.6448 -1.4636,1.2227 -1.4636,1.2843 0,0.0617 0.3739,0.875 0.8308,1.8075 0.7241,1.4777 0.8646,1.6883 1.0937,1.6388 0.1446,-0.0313 0.9273,-0.2613 1.739,-0.5111 1.8759,-0.5774 2.8166,-0.6153 3.1991,-0.1292 0.5465,0.6948 0.5095,0.9062 -0.8651,4.9592 -0.8281,2.4415 -1.4002,3.933 -1.6171,4.2157 -0.7044,0.9181 -0.2329,0.8746 -9.4791,0.8748 -9.448,2e-4 -8.4038,0.1208 -10.2763,-1.1868 -1.2476,-0.8712 -1.64699,-1.0631 -2.21249,-1.0625 -0.74012,8e-4 -1.31862,0.4394 -2.59425,1.9669 l -0.33812,0.4047 0.44325,0.7297 c 1.2185,2.0058 1.655,3.4656 1.3305,4.4488 -0.164,0.497 -2.48088,3.9873 -5.9413804,8.9505 -1.2915,1.8523 -1.520871,2.2547 -1.765746,3.0972 -0.25775,0.8866 -0.173375,1.9121 0.221375,2.6887 0.16275,0.3203 1.589251,2.3265 3.170121,4.4583 l 2.8742504,3.8761 3.10338,0.0017 3.10351,0.0019 -0.5953,-0.8437 c -2.364,-3.351 -4.16184,-6.1807 -4.42021,-6.9572 -0.559,-1.6796 -0.33238,-2.6812 1.04912,-4.6366 0.38863,-0.55 1.16009,-1.6622 1.71449,-2.4715 0.6536,-0.9541 1.195924,-1.473966 1.5265,-1.8241 0.365775,-0.353675 0.75622,-0.713323 1.183903,-0.239339 0.330272,0.366027 0.194834,0.627839 -0.785103,1.856939 -2.4048,3.5321 -2.72141,4.0226 -3.02629,4.6888 -0.286,0.6247 -0.31012,0.7915 -0.233,1.614 0.0975,1.0415 0.36113,1.5297 2.42909,4.5002 0.6222,0.8938 1.5687,2.2854 2.103,3.0926 l 0.9719,1.4675 3.292,0.0013 3.292,0.0011 -0.4349,-0.7812 c -0.3966,-0.7127 -3.5145,-6.9147 -4.013,-7.9829 l -0.2107,-0.4515 1.2377,-2.0485 c 2.2454,-3.7156 2.4608,-4.0304 3.0814,-4.5028 1.1728,-0.8928 2.282,-1.0825 6.6305,-1.1337 l 3.125,-0.0369 0.694,0.3409 c 1.0524,0.5167 1.8793,1.7535 4.62,6.9091 0.3654,0.6875 0.76,1.4209 0.8769,1.6296 0.1169,0.2088 0.8887,1.615 1.7152,3.125 0.8267,1.51 1.7772,3.2235 2.1123,3.8079 l 0.6092,1.0625 3.1662,0.0334 c 1.7412,0.0184 3.1456,-0.0098 3.1207,-0.0625 -0.0249,-0.0528 -0.2461,-0.4896 -0.4916,-0.9709 -1.8121,-3.5521 -7.6568,-15.3037 -7.9818,-16.0487 -0.3496,-0.8015 -0.3922,-1.0107 -0.3211,-1.5798 0.0451,-0.3609 0.1596,-0.7607 0.2546,-0.8887 0.1669,-0.225 0.1922,-0.2225 0.7592,0.0746 0.7092,0.3715 4.9903,3.1762 5.0862,3.3321 0.0374,0.0608 -0.3249,1.0105 -0.805,2.1105 -0.4801,1.1 -0.8994,2.1125 -0.9317,2.25 -0.047,0.1996 0.1863,0.4264 1.1581,1.125 0.6692,0.4813 1.6569,1.1984 2.1947,1.5938 0.5378,0.3953 1.0054,0.7187 1.0392,0.7187 0.0828,0 2.9873,-5.8106 3.5301,-7.0625 0.8284,-1.9106 0.5677,-3.29 -0.8238,-4.3599 -0.3886,-0.2987 -2.3941,-1.6001 -4.4566,-2.892 -5.981,-3.746 -6.1711,-3.8926 -6.2779,-4.8398 -0.0768,-0.6824 0.2642,-1.9637 1.5063,-5.6583 1.1627,-3.4586 1.2184,-3.5866 1.7271,-3.9741 0.6981,-0.5318 1.4228,-0.6478 5.1695,-0.8268 1.3063,-0.0625 2.5719,-0.1757 2.8125,-0.2517 0.2406,-0.076 0.704,-0.3344 1.0298,-0.5741 0.9625,-0.7085 1.4777,-1.7178 1.4607,-2.8607 -0.0197,-1.32 -0.7232,-2.4047 -1.9241,-2.9666 -0.8603,-0.4026 -1.7035,-0.5629 -6.4414,-1.2242 -4.7882,-0.66842 -6.5117,-0.89517 -9.4375,-1.2418 l -2.875,-0.34075 -0.0844,-0.49462 c -0.0465,-0.272 -0.1432,-1.029 -0.2151,-1.68213 -0.286,-2.6019995 -1.2212,-4.2148695 -2.953,-5.0928695 -1.6169,-0.819751 -2.81,-0.222126 -2.81,1.40762 0,0.84963 0.2676,1.25238 1.1168,1.68113 0.4046,0.20425 0.8478,0.52887 0.985,0.7215 0.323,0.45362 0.612,1.3552495 0.8185,2.5537495 l 0.1651,0.9585 -1.1989,0.09025 c -1.5887,0.1195 -4.2075,-0.0089 -5.446,-0.267 -2.5537,-0.53238 -3.5875,-1.65525 -4.6719,-5.0746295 -0.2762,-0.87125 -0.5931,-1.75975 -0.704,-1.97425 -0.4176,-0.807621 -1.6108,-1.135246 -2.3527,-0.646121 z m 26.5827,12.2661205 c -0.3973,0.1603 -0.6696,0.6226 -0.6696,1.137 0,0.9224 0.9406,1.5489 1.7918,1.1933 0.241,-0.1008 0.4988,-0.2967 0.5732,-0.4355 0.255379,-0.393797 0.313337,-1.114031 -0.0252,-1.5297 -0.3465,-0.4512 -1.0667,-0.6087 -1.6702,-0.3651 z"
     fill="#000000"
     id="path237"
     sodipodi:nodetypes="ccccccscccccssccccccccccccccccscscccccccccsccccccccccccccccccsscccssccccccsccccccccssccccccccccscccc"
     style="fill:#000;fill-opacity:1" />
</svg>