<svg width="8" height="8" fill="none" xmlns="http://www.w3.org/2000/svg"><g clip-path="url(#clip0_2561_13534)"><path d="M4.958.28c.58-.634 1.627-.107 1.462.736l-.365 1.868a.85.85 0 00.26.79L7.72 4.958c.634.58.107 1.627-.736 1.462l-1.868-.365a.85.85 0 00-.79.26L3.042 7.72c-.58.634-1.627.107-1.462-.736l.365-1.868a.85.85 0 00-.26-.79L.28 3.042c-.634-.58-.107-1.627.736-1.462l1.868.365a.85.85 0 00.79-.26L4.958.28z" fill="#E3E3E3"/></g><defs><clipPath id="clip0_2561_13534"><path fill="#fff" d="M0 0h8v8H0z"/></clipPath></defs></svg>